<?xml version="1.0" standalone="no"?>
<!DOCTYPE svg PUBLIC "-//W3C//DTD SVG 20010904//EN"
 "http://www.w3.org/TR/2001/REC-SVG-20010904/DTD/svg10.dtd">
<svg version="1.0" xmlns="http://www.w3.org/2000/svg"
 width="500.000000pt" height="500.000000pt" viewBox="0 0 500.000000 500.000000"
 preserveAspectRatio="xMidYMid meet">
<metadata>
Created by potrace 1.11, written by Peter Selinger 2001-2013
</metadata>
<g transform="translate(0.000000,500.000000) scale(0.100000,-0.100000)"
fill="#000000" stroke="none">
<path d="M1490 4245 l0 -425 -425 0 -425 0 2 -221 3 -221 420 -2 420 -1 3
-432 c2 -334 -1 -458 -12 -545 -19 -139 -14 -443 8 -573 110 -650 513 -1078
1136 -1205 145 -30 271 -39 471 -35 312 7 558 50 758 133 l66 28 3 327 2 327
-87 -44 c-113 -56 -234 -99 -364 -127 -86 -19 -135 -23 -284 -24 -193 0 -271
10 -387 52 -290 103 -484 334 -561 667 -29 131 -30 410 0 546 45 208 116 342
253 481 134 135 273 212 462 256 113 26 410 23 545 -5 129 -28 257 -73 351
-122 l72 -39 0 344 0 344 -84 26 c-103 31 -255 61 -356 70 -41 4 -86 9 -100
11 -50 8 -417 4 -480 -6 -36 -5 -266 -10 -512 -10 l-448 0 0 425 0 425 -225 0
-225 0 0 -425z"/>
</g>
</svg>
