<?xml version="1.0" encoding="UTF-8" standalone="no"?>
<!-- Created with Inkscape (http://www.inkscape.org/) -->

<svg
   xmlns:dc="http://purl.org/dc/elements/1.1/"
   xmlns:cc="http://creativecommons.org/ns#"
   xmlns:rdf="http://www.w3.org/1999/02/22-rdf-syntax-ns#"
   xmlns:svg="http://www.w3.org/2000/svg"
   xmlns="http://www.w3.org/2000/svg"
   xmlns:sodipodi="http://sodipodi.sourceforge.net/DTD/sodipodi-0.dtd"
   xmlns:inkscape="http://www.inkscape.org/namespaces/inkscape"
   width="47.574108mm"
   height="11.509661mm"
   viewBox="0 0 47.574108 11.509661"
   version="1.1"
   id="svg8"
   inkscape:version="0.92.4 (5da689c313, 2019-01-14)"
   sodipodi:docname="cistimir.svg">
  <defs
     id="defs2" />
  <sodipodi:namedview
     id="base"
     pagecolor="#ffffff"
     bordercolor="#666666"
     borderopacity="1.0"
     inkscape:pageopacity="0.0"
     inkscape:pageshadow="2"
     inkscape:zoom="0.98994949"
     inkscape:cx="368.32379"
     inkscape:cy="26.716759"
     inkscape:document-units="mm"
     inkscape:current-layer="layer1"
     showgrid="false"
     fit-margin-top="0"
     fit-margin-left="0"
     fit-margin-right="0"
     fit-margin-bottom="0"
     inkscape:window-width="1366"
     inkscape:window-height="705"
     inkscape:window-x="-8"
     inkscape:window-y="-8"
     inkscape:window-maximized="1" />
  <metadata
     id="metadata5">
    <rdf:RDF>
      <cc:Work
         rdf:about="">
        <dc:format>image/svg+xml</dc:format>
        <dc:type
           rdf:resource="http://purl.org/dc/dcmitype/StillImage" />
        <dc:title></dc:title>
      </cc:Work>
    </rdf:RDF>
  </metadata>
  <g
     inkscape:label="Layer 1"
     inkscape:groupmode="layer"
     id="layer1"
     transform="translate(-54.012792,-203.58318)">
    <path
       style="fill:#000000;stroke-width:0.26458335"
       d="m 58.633062,214.94276 c -1.233358,-0.35769 -2.196291,-1.53705 -2.481074,-3.0387 -0.137176,-0.72333 -0.239138,-1.49245 -0.226581,-1.70916 0.01256,-0.2167 0.0041,-0.95956 -0.01885,-1.65078 -0.04152,-1.25198 -0.04521,-1.25677 -0.967723,-1.25677 -0.811389,0 -0.926042,-0.0819 -0.926042,-0.66146 0,-0.57956 0.114653,-0.66146 0.926042,-0.66146 0.921142,0 0.926042,-0.006 0.926042,-1.19062 0,-1.01424 0.0784,-1.19063 0.529166,-1.19063 0.450772,0 0.529167,0.17639 0.529167,1.19063 v 1.19062 h 1.962736 c 2.535909,0 2.799764,0.11358 2.799764,1.20517 0,0.86929 -0.01332,0.87933 -0.801899,0.60443 -1.79432,-0.62551 -3.342365,0.94797 -3.094671,3.14551 0.22507,1.99682 1.814112,3.01994 3.384797,2.17933 0.460354,-0.24637 0.511773,-0.18148 0.511773,0.64584 0,0.50586 -0.0893,0.97066 -0.198437,1.0329 -0.495135,0.28234 -2.12495,0.37665 -2.85421,0.16515 z m 8.476605,0.0536 c -0.689688,-0.1484 -0.804542,-0.30117 -0.876072,-1.16523 l -0.08232,-0.99443 0.935211,0.44597 c 0.753139,0.35915 1.06535,0.38668 1.603676,0.1414 1.032754,-0.47056 0.847634,-1.24695 -0.48329,-2.02692 -1.953904,-1.14506 -2.444885,-2.06362 -1.987829,-3.71894 0.327634,-1.18659 1.410861,-1.7696 3.087243,-1.6616 l 1.242967,0.0801 0.08383,1.05834 c 0.0675,0.85225 0.01856,0.99393 -0.251354,0.7276 -0.762044,-0.75192 -2.856795,-0.14328 -2.560998,0.74411 0.0548,0.16439 0.744234,0.73394 1.532087,1.26567 1.557085,1.05089 1.997397,1.94203 1.640361,3.31987 -0.354648,1.36864 -2.096133,2.16867 -3.883507,1.78408 z m -4.630208,-0.82988 c 0,-0.43656 0.119063,-0.79375 0.264583,-0.79375 0.160354,0 0.264584,-1.14652 0.264584,-2.91041 0,-1.76389 -0.10423,-2.91042 -0.264584,-2.91042 -0.14552,0 -0.264583,-0.35719 -0.264583,-0.79375 0,-0.78573 0.0147,-0.79375 1.455208,-0.79375 1.44051,0 1.455209,0.008 1.455209,0.79375 0,0.52917 -0.132292,0.79375 -0.396875,0.79375 -0.328725,0 -0.396875,0.49977 -0.396875,2.91042 0,2.41065 0.06815,2.91041 0.396875,2.91041 0.264583,0 0.396875,0.26459 0.396875,0.79375 0,0.78574 -0.0147,0.79375 -1.455209,0.79375 -1.440509,0 -1.455208,-0.008 -1.455208,-0.79375 z m 11.377083,-2.77812 v -3.57188 h -1.058333 c -1.033135,0 -1.058333,-0.022 -1.058333,-0.92604 v -0.92604 h 2.910416 2.910417 v 0.92604 c 0,0.904 -0.02519,0.92604 -1.058333,0.92604 h -1.058334 v 3.57188 3.57187 h -0.79375 -0.79375 z m 3.96875,2.77812 c 0,-0.52916 0.132292,-0.79375 0.396875,-0.79375 0.328724,0 0.396875,-0.49976 0.396875,-2.91041 0,-2.4655 -0.06336,-2.91042 -0.414448,-2.91042 -0.296034,0 -0.39053,-0.20789 -0.330729,-0.7276 0.07809,-0.67864 0.177199,-0.73299 1.472782,-0.80758 l 1.389062,-0.08 v 0.80757 c 0,0.44417 -0.119062,0.80758 -0.264583,0.80758 -0.160354,0 -0.264583,1.14653 -0.264583,2.91042 0,1.76389 0.104229,2.91041 0.264583,2.91041 0.145521,0 0.264583,0.35719 0.264583,0.79375 0,0.78574 -0.01471,0.79375 -1.455208,0.79375 -1.440508,0 -1.455209,-0.008 -1.455209,-0.79375 z m 4.028499,-3.63802 0.07254,-4.43177 h 1.189088 1.18909 l 0.918332,3.15715 0.918332,3.15715 0.487944,-1.70194 c 1.392495,-4.85701 1.256959,-4.60327 2.50711,-4.69372 l 1.124479,-0.0814 v 4.51313 4.51313 h -0.79375 -0.79375 l -0.01839,-3.24114 -0.01839,-3.24115 -0.95681,3.24115 c -0.901742,3.05461 -0.995884,3.24114 -1.635816,3.24114 -0.642455,0 -0.731506,-0.18159 -1.654288,-3.37343 l -0.975278,-3.37344 -0.01635,3.37344 -0.01635,3.37343 h -0.800148 -0.800148 z m 9.465252,3.63802 c 0,-0.52916 0.132291,-0.79375 0.396875,-0.79375 0.328723,0 0.396875,-0.49976 0.396875,-2.91041 0,-2.4655 -0.06336,-2.91042 -0.414449,-2.91042 -0.296034,0 -0.39053,-0.20789 -0.330729,-0.7276 0.07809,-0.67864 0.177199,-0.73299 1.472782,-0.80758 l 1.389062,-0.08 v 0.80757 c 0,0.44417 -0.119062,0.80758 -0.264583,0.80758 -0.160353,0 -0.264583,1.14653 -0.264583,2.91042 0,1.76389 0.10423,2.91041 0.264583,2.91041 0.145521,0 0.264583,0.35719 0.264583,0.79375 0,0.78574 -0.01471,0.79375 -1.455208,0.79375 -1.440508,0 -1.455208,-0.008 -1.455208,-0.79375 z m 4.028498,-3.63802 0.07254,-4.43177 1.332048,-0.078 c 0.732623,-0.0429 1.804186,0.0766 2.38125,0.26554 0.837583,0.27425 1.108931,0.52814 1.345321,1.25876 0.36205,1.11897 0.0661,2.33908 -0.725408,2.99093 -0.509476,0.41957 -0.527886,0.51626 -0.176326,0.92604 0.215903,0.25166 0.756464,1.14216 1.201234,1.97891 l 0.8087,1.52135 h -0.9761 c -0.937983,0 -1.009217,-0.0671 -1.824168,-1.71979 -0.484471,-0.98245 -1.019281,-1.71979 -1.247413,-1.71979 -0.315113,0 -0.399346,0.36275 -0.399346,1.71979 v 1.71979 h -0.932439 -0.93244 z m 3.326918,-0.91281 c 0.762294,-0.76229 0.178306,-2.06375 -0.926041,-2.06375 -0.544846,0 -0.608542,0.12462 -0.608542,1.19063 0,1.066 0.0637,1.19062 0.608542,1.19062 0.334698,0 0.751416,-0.14287 0.926041,-0.3175 z"
       id="path36"
       inkscape:connector-curvature="0" />
  </g>
</svg>
